<?xml version="1.0" encoding="UTF-8" standalone="no"?>
<!-- Created with Inkscape (http://www.inkscape.org/) -->

<svg
   width="210mm"
   height="297mm"
   viewBox="0 0 210 297"
   version="1.1"
   id="svg1"
   inkscape:version="1.3 (0e150ed6c4, 2023-07-21)"
   sodipodi:docname="rmodvege-logo_v1.svg"
   xmlns:inkscape="http://www.inkscape.org/namespaces/inkscape"
   xmlns:sodipodi="http://sodipodi.sourceforge.net/DTD/sodipodi-0.dtd"
   xmlns:xlink="http://www.w3.org/1999/xlink"
   xmlns="http://www.w3.org/2000/svg"
   xmlns:svg="http://www.w3.org/2000/svg">
  <sodipodi:namedview
     id="namedview1"
     pagecolor="#505050"
     bordercolor="#eeeeee"
     borderopacity="1"
     inkscape:showpageshadow="0"
     inkscape:pageopacity="0"
     inkscape:pagecheckerboard="0"
     inkscape:deskcolor="#505050"
     inkscape:document-units="mm"
     inkscape:zoom="0.73874849"
     inkscape:cx="402.7081"
     inkscape:cy="371.57436"
     inkscape:window-width="1280"
     inkscape:window-height="731"
     inkscape:window-x="0"
     inkscape:window-y="0"
     inkscape:window-maximized="1"
     inkscape:current-layer="layer1" />
  <defs
     id="defs1">
    <linearGradient
       id="linearGradient72"
       inkscape:collect="always">
      <stop
         style="stop-color:#ffffff;stop-opacity:1;"
         offset="0"
         id="stop72" />
      <stop
         style="stop-color:#ffffff;stop-opacity:0;"
         offset="1"
         id="stop73" />
    </linearGradient>
    <linearGradient
       id="linearGradient64"
       inkscape:collect="always">
      <stop
         style="stop-color:#37ad60;stop-opacity:1;"
         offset="0"
         id="stop64" />
      <stop
         style="stop-color:#216521;stop-opacity:1;"
         offset="1"
         id="stop65" />
    </linearGradient>
    <inkscape:path-effect
       effect="powerstroke"
       id="path-effect4"
       is_visible="true"
       lpeversion="1.3"
       scale_width="1"
       interpolator_type="CubicBezierJohan"
       interpolator_beta="0.2"
       start_linecap_type="zerowidth"
       end_linecap_type="zerowidth"
       offset_points="0,4.9921382"
       linejoin_type="extrp_arc"
       miter_limit="4"
       not_jump="false"
       sort_points="true"
       message="&lt;b&gt;Ctrl + click&lt;/b&gt; on existing node and move it" />
    <inkscape:path-effect
       effect="fill_between_many"
       method="bsplinespiro"
       autoreverse="false"
       close="false"
       join="false"
       linkedpaths="#path4,0,1"
       id="path-effect5" />
    <linearGradient
       inkscape:collect="always"
       xlink:href="#linearGradient64"
       id="linearGradient65"
       x1="105.50897"
       y1="53.190983"
       x2="105.50897"
       y2="145.45538"
       gradientUnits="userSpaceOnUse" />
    <linearGradient
       inkscape:collect="always"
       xlink:href="#linearGradient72"
       id="linearGradient73"
       x1="104.30417"
       y1="81.363174"
       x2="104.81472"
       y2="55.879906"
       gradientUnits="userSpaceOnUse" />
    <linearGradient
       inkscape:collect="always"
       xlink:href="#linearGradient72"
       id="linearGradient74"
       x1="112.21956"
       y1="105.58381"
       x2="112.2581"
       y2="50.688812"
       gradientUnits="userSpaceOnUse" />
  </defs>
  <g
     inkscape:label="Layer 1"
     inkscape:groupmode="layer"
     id="layer1">
    <g
       id="g63"
       style="fill-opacity:1;fill:url(#linearGradient65)">
      <path
         d="m 41.532349,130.90519 c 0.139598,-0.60577 0.246745,-1.18467 0.390673,-1.79369 0.858515,-3.63271 1.79238,-7.32005 2.783293,-11.02827 0.990913,-3.70821 2.039159,-7.43734 3.125391,-11.15229 1.086231,-3.71495 2.210881,-7.415658 3.35535,-11.068574 1.14447,-3.652917 2.30858,-7.258107 3.474207,-10.780221 1.165627,-3.522113 2.33277,-6.961586 3.482475,-10.284127 1.149705,-3.322541 2.281903,-6.528161 3.378605,-9.58236 1.746675,-4.864306 3.289769,-8.969867 4.78007,-12.927377 L 41.532349,66.589217 Z"
         style="fill:url(#linearGradient65);stroke:#55a455;stroke-width:0;fill-opacity:1"
         id="path61" />
      <path
         d="m 170.23095,118.76381 c -0.19072,-0.67904 -0.37214,-1.35921 -0.57309,-2.03657 -0.38598,-1.30108 -0.79023,-2.59855 -1.21078,-3.89072 -0.84109,-2.58433 -1.74731,-5.14736 -2.70164,-7.67446 -0.95433,-2.52711 -1.9568,-5.01837 -2.99103,-7.459497 -1.03424,-2.441123 -2.09988,-4.832346 -3.18069,-7.158736 -1.08081,-2.32639 -2.17654,-4.588257 -3.2706,-6.771163 -0.59991,-1.196962 -1.19187,-2.30589 -1.788,-3.453019 -1.65232,4.069446 -3.26967,8.040825 -5.13716,12.698967 -2.71696,6.777003 -5.59482,14.026308 -8.43876,21.310328 -2.84394,7.28402 -5.6541,14.60251 -8.23567,21.51755 -1.29079,3.45752 -2.52459,6.81438 -3.67678,10.01541 -1.1522,3.20102 -2.22247,6.24658 -3.1874,9.08161 -0.96494,2.83503 -1.82433,5.45963 -2.55334,7.81916 -0.729,2.35954 -1.32808,4.45402 -1.7725,6.22857 -0.003,0.0125 -0.005,0.0216 -0.008,0.0341 l 48.72519,-28.13161 z"
         style="fill:url(#linearGradient65);stroke:#55a455;stroke-width:0;fill-opacity:1"
         id="path54" />
      <path
         d="m 162.06556,61.874776 c -1.14101,2.750838 -2.10462,5.047981 -5.21364,12.668478 -0.51427,1.260545 -1.19604,2.96316 -1.74666,4.317565 0.41267,0.747207 0.80647,1.427706 1.22835,2.209685 1.10414,2.046569 2.23849,4.212353 3.39618,6.498828 1.15768,2.286475 2.33882,4.693932 3.53621,7.222815 1.1974,2.528883 2.41112,5.17921 3.63441,7.953003 1.10372,2.50269 2.21645,5.13841 3.33054,7.84242 V 66.589217 Z"
         style="fill:url(#linearGradient65);stroke:#55a455;stroke-width:0;fill-opacity:1"
         id="path52" />
      <path
         d="M 105.88191,29.436963 67.518359,51.585999 c -0.184463,0.564308 -0.276132,0.822246 -0.466638,1.407666 -1.866373,5.735309 -4.013109,12.461245 -6.254398,19.734196 -1.120645,3.636475 -2.265021,7.409794 -3.409611,11.264428 -1.14459,3.854634 -2.289666,7.790813 -3.411678,11.752771 -1.122013,3.961958 -2.221306,7.94987 -3.274219,11.90832 -1.052913,3.95845 -2.059426,7.88748 -2.996717,11.73158 -0.93729,3.8441 -1.805058,7.60313 -2.580204,11.22205 -0.775146,3.61893 -1.457687,7.09786 -2.024166,10.38077 -0.04412,0.2557 -0.07563,0.4898 -0.118339,0.7431 l 20.892265,12.06232 c 0.196482,-0.49368 0.392052,-0.90257 0.588595,-1.41645 0.771303,-2.01668 1.54231,-4.18435 2.307869,-6.46318 0.765559,-2.27882 1.525624,-4.66911 2.274797,-7.13186 0.749173,-2.46275 1.487539,-4.998 2.209684,-7.56646 0.722145,-2.56847 1.428058,-5.16998 2.112533,-7.76594 1.368949,-5.19191 2.651552,-10.36083 3.805969,-15.19339 1.154416,-4.83255 2.18021,-9.328995 3.034957,-13.176452 1.709494,-7.694914 2.734716,-12.793535 2.734716,-12.793535 0,0 -0.765572,5.150525 -2.023649,13.048816 -0.629038,3.949146 -1.380903,8.585331 -2.222086,13.607951 -0.841183,5.02263 -1.771859,10.43182 -2.756938,15.9272 -0.985079,5.49537 -2.024875,11.07656 -3.0856,16.44395 -0.530362,2.6837 -1.066008,5.31421 -1.602486,7.85327 -0.536477,2.53907 -1.073593,4.98667 -1.607654,7.30602 -0.04671,0.20285 -0.09235,0.37067 -0.139009,0.57154 l 31.582568,18.23403 c -0.18082,-1.10255 -0.39143,-2.31774 -0.81752,-4.33824 -0.543486,-2.5772 -1.2622,-5.8076 -2.09548,-9.45162 -1.666561,-7.28803 -3.790424,-16.23151 -5.881295,-24.91682 -4.181743,-17.37064 -8.232056,-33.70906 -8.232056,-33.70906 0,0 1.582948,4.7334 3.918107,11.88765 1.16758,3.57712 2.523286,7.75957 3.963066,12.25816 1.43978,4.4986 2.963691,9.31322 4.467944,14.15521 1.504254,4.842 2.988605,9.71117 4.349604,14.31851 1.361,4.60734 2.59854,8.95292 3.60857,12.74754 0.50501,1.89731 0.95338,3.65683 1.3317,5.24258 0.20766,0.87043 0.33731,1.54558 0.50074,2.30528 -0.003,-0.33153 -0.0157,-0.5428 -0.0165,-0.89658 -0.004,-1.67368 0.0131,-3.59131 0.0475,-5.7056 0.0689,-4.22857 0.20812,-9.24308 0.39274,-14.66474 0.18462,-5.42165 0.41459,-11.25033 0.66404,-17.10593 0.4989,-11.71119 1.07667,-23.5312 1.52962,-32.42334 0.45296,-8.892145 0.78084,-14.856462 0.78084,-14.856462 0,0 -0.14075,5.387546 -0.26407,13.494782 -0.0617,4.05362 -0.11868,8.78739 -0.15193,13.86737 -0.0332,5.07999 -0.0424,10.5064 -0.008,15.9458 0.0346,5.43939 0.11324,10.89147 0.25528,16.02331 0.071,2.56592 0.15776,5.05211 0.26303,7.41609 0.10528,2.36397 0.22864,4.60568 0.37311,6.68434 0.14446,2.07867 0.31008,3.99407 0.49867,5.70405 0.1886,1.70998 0.40055,3.21466 0.63821,4.47259 0.0769,0.40729 0.16096,0.74453 0.24339,1.09864 l 4.7284,-2.73006 c 3.47469,-9.18615 6.87563,-18.12513 9.95443,-26.03304 3.72895,-9.57782 7.16967,-18.24514 10.32908,-26.06611 3.15941,-7.82096 6.03712,-14.79577 8.63927,-20.989415 2.60215,-6.193645 4.92897,-11.605993 6.98614,-16.301848 0.65134,-1.486803 1.10264,-2.455084 1.70015,-3.800285 -0.24663,-0.468065 -0.49871,-0.977556 -0.74362,-1.436088 -1.07397,-2.01067 -2.12914,-3.92795 -3.14968,-5.737634 -1.02054,-1.809684 -2.00609,-3.511731 -2.93987,-5.091679 -0.93378,-1.579947 -1.81612,-3.037964 -2.62982,-4.359424 -1.62738,-2.642919 -2.98141,-4.739904 -3.92844,-6.176367 -0.94702,-1.436463 -1.48673,-2.212268 -1.48673,-2.212268 0,0 0.36937,0.432338 1.05368,1.306897 0.68432,0.874559 1.68341,2.191348 2.94143,3.960482 1.25801,1.769134 2.77528,3.990287 4.49636,6.674011 0.86054,1.341862 1.77191,2.799631 2.72748,4.373893 0.95557,1.574263 1.9553,3.264945 2.99207,5.074109 0.4089,0.713529 0.84759,1.530659 1.26762,2.280998 1.04434,-2.339516 2.19733,-4.95783 3.06855,-6.85953 1.52446,-3.327595 2.78592,-6.003146 3.78995,-8.092012 0.31573,-0.656886 0.20467,-0.401841 0.46974,-0.944645 z"
         style="fill:url(#linearGradient65);stroke:#55a455;stroke-width:0;fill-opacity:1"
         id="path50" />
    </g>
    <text
       xml:space="preserve"
       style="font-style:normal;font-variant:normal;font-weight:normal;font-stretch:normal;font-size:16.93333333px;font-family:Quicksand;-inkscape-font-specification:Quicksand;letter-spacing:0px;fill:url(#linearGradient73);fill-opacity:1;stroke:#80c280;stroke-width:0;stroke-dasharray:none;stroke-opacity:1"
       x="105.57547"
       y="77.441681"
       id="text1"><tspan
         sodipodi:role="line"
         id="tspan1"
         style="font-style:normal;font-variant:normal;font-weight:normal;font-stretch:normal;font-family:Quicksand;-inkscape-font-specification:Quicksand;text-align:center;letter-spacing:0px;text-anchor:middle;fill:url(#linearGradient73);fill-opacity:1;stroke-width:0;stroke-dasharray:none;font-size:16.93333333px"
         x="105.57547"
         y="77.441681">rmodvege</tspan></text>
    <path
       style="fill:#38b03d;fill-opacity:1;stroke:#000000;stroke-width:0;stroke-dasharray:none;stroke-opacity:1"
       d="m 41.978252,241.95594 c 0,0 12.26227,-6.44902 8.439036,-26.54892 -3.823235,-20.0999 22.964105,74.46392 27.422038,28.99965 4.457935,-45.46426 5.267687,-32.66072 12.478133,-12.63492 7.210449,20.02579 19.714361,27.70233 21.627051,9.31322 1.91269,-18.38911 15.8299,-34.22975 15.73647,-14.80214 -0.0934,19.42761 12.54042,28.23931 23.06076,10.27977 10.52034,-17.95953 17.20348,-13.37273 15.51095,-5.61779 -1.69254,7.75494 -5.91957,17.43223 -5.91957,17.43223 l -22.15328,38.60822 -70.575182,-0.30285 z"
       id="path2" />
    <path
       style="fill:#41a300;fill-opacity:1;stroke:#000000;stroke-width:0;stroke-dasharray:none;stroke-opacity:1"
       d="m 49.535196,133.37251 c 5.21653,-7.61485 6.356911,-37.29499 6.356911,-37.29499 0,0 -1.808824,46.72203 2.48902,48.027 4.297841,1.30498 11.13341,-38.81326 11.13341,-38.81326 0,0 -4.67237,36.44853 -1.928067,37.89794 2.744303,1.44941 15.436292,-0.80281 15.436292,-0.80281 l 4.605192,-45.077795 c 0,0 -2.048992,40.790035 1.024495,43.520905 3.073485,2.73087 15.172611,7.88357 21.354851,2.05235 6.18224,-5.83123 0.2872,-37.45119 0.2872,-37.45119 0,0 12.56938,32.50842 10.4616,35.45258 -2.10777,2.94417 22.25843,-2.1296 22.25843,-2.1296 l -1.63919,-40.95799 c 0,0 7.14291,40.39703 9.66217,40.61537 2.51925,0.21833 -0.97076,-36.53586 -0.97076,-36.53586 0,0 7.7593,32.34718 6.55845,34.86811 -1.20084,2.52093 6.63571,-29.99756 6.63571,-29.99756 0,0 -4.34319,30.00596 -1.46284,32.25145 2.88034,2.2455 -9.81669,20.15569 -9.81669,20.15569 l -110.418773,2.89882 z"
       id="path6" />
    <path
       style="fill:#99ff55;fill-opacity:1;stroke:#000000;stroke-width:0;stroke-dasharray:none;stroke-opacity:1"
       d="m 44.637772,146.85422 1.54682,-37.7283 c 0,0 -0.204899,36.9255 6.420731,40.01411 6.625629,3.0886 6.497989,-28.34326 6.497989,-28.34326 0,0 -0.814559,17.88836 2.663688,23.53316 3.478246,5.64481 5.854739,3.63612 10.359162,-0.96907 4.50442,-4.60519 1.867604,-31.94074 1.867604,-31.94074 0,0 6.046202,29.26698 4.915897,32.38749 -1.130303,3.12051 11.422285,6.83389 16.58675,2.33115 5.164467,-4.50274 9.101217,-35.09821 9.101217,-35.09821 0,0 -4.27937,29.4131 0.91365,34.10898 5.19301,4.69588 18.10838,3.26663 20.65954,1.43765 2.55116,-1.82897 1.33688,-25.562 1.33688,-25.562 0,0 6.3905,22.50363 4.73115,26.4387 -1.65934,3.93507 5.38952,-33.03074 5.38952,-33.03074 0,0 -2.81316,28.37349 -0.0487,29.749 2.76446,1.37551 15.80411,5.75733 15.80411,5.75733 l 1.60896,-36.44685 3.16082,40.35505 c 0,0 -82.722131,13.47967 -84.705622,13.47967 -1.983492,0 -28.810156,-20.47312 -28.810156,-20.47312 z"
       id="path7" />
    <path
       d="m 106.60435,177.62895 c -0.10022,-0.53166 -0.27082,-1.24104 -0.40205,-1.85105 0.006,0.76222 0.0209,1.42461 0.0377,2.06137 z"
       style="fill:#ffffff;stroke:#000000;stroke-width:0"
       id="path57" />
    <g
       id="g64"
       style="fill:url(#linearGradient74);fill-opacity:1">
      <path
         d="m 153.78596,78.911462 c 0.24184,0.458968 0.48605,0.940372 0.72916,1.408183 0.18981,-0.467488 0.4041,-1.001199 0.59014,-1.458826 -0.2414,-0.437088 -0.48078,-0.8672 -0.71882,-1.292427 -0.20446,0.458026 -0.38933,0.867709 -0.60048,1.34307 z"
         style="fill:url(#linearGradient74);stroke:#55a455;stroke-width:0;fill-opacity:1"
         id="path63" />
      <path
         d="m 153.78596,78.911462 c 0.21115,-0.475361 0.39602,-0.885044 0.60048,-1.34307 -0.42003,-0.750339 -0.85872,-1.567469 -1.26762,-2.280998 -1.03677,-1.809164 -2.0365,-3.499846 -2.99207,-5.074109 -0.95557,-1.574262 -1.86694,-3.032031 -2.72748,-4.373893 -1.72108,-2.683724 -3.23835,-4.904877 -4.49636,-6.674011 -1.25802,-1.769134 -2.25711,-3.085923 -2.94143,-3.960482 -0.68431,-0.874559 -1.05368,-1.306897 -1.05368,-1.306897 0,0 0.53971,0.775805 1.48673,2.212268 0.94703,1.436463 2.30106,3.533448 3.92844,6.176367 0.8137,1.32146 1.69604,2.779477 2.62982,4.359424 0.93378,1.579948 1.91933,3.281995 2.93987,5.091679 1.02054,1.809684 2.07571,3.726964 3.14968,5.737634 0.24491,0.458532 0.49699,0.968023 0.74362,1.436088 z"
         style="fill:url(#linearGradient74);stroke:#000000;stroke-width:0;fill-opacity:1"
         id="path62" />
      <path
         d="m 42.982389,141.73088 c 0.04271,-0.2533 0.07422,-0.4874 0.118339,-0.7431 0.566479,-3.28291 1.24902,-6.76184 2.024166,-10.38077 0.775146,-3.61892 1.642914,-7.37795 2.580204,-11.22205 0.937291,-3.8441 1.943804,-7.77313 2.996717,-11.73158 1.052913,-3.95845 2.152206,-7.946362 3.274219,-11.90832 1.122012,-3.961958 2.267088,-7.898137 3.411678,-11.752771 1.14459,-3.854634 2.288966,-7.627953 3.409611,-11.264428 2.241289,-7.272951 4.388025,-13.998887 6.254398,-19.734196 0.190506,-0.58542 0.282175,-0.843358 0.466638,-1.407666 l -1.215946,0.702282 c -1.490301,3.95751 -3.033395,8.063071 -4.78007,12.927377 -1.096702,3.054199 -2.2289,6.259819 -3.378605,9.58236 -1.149705,3.322541 -2.316848,6.762014 -3.482475,10.284127 -1.165627,3.522114 -2.329737,7.127304 -3.474207,10.780221 -1.144469,3.652916 -2.269119,7.353624 -3.35535,11.068574 -1.086232,3.71495 -2.134478,7.44408 -3.125391,11.15229 -0.990913,3.70822 -1.924778,7.39556 -2.783293,11.02827 -0.143928,0.60902 -0.251075,1.18792 -0.390673,1.79369 v 9.98854 z"
         style="fill:url(#linearGradient74);stroke:#000000;stroke-width:0;fill-opacity:1"
         id="path60" />
      <path
         d="m 69.506352,157.04468 c 0.04666,-0.20087 0.0923,-0.36869 0.139009,-0.57154 0.534061,-2.31935 1.071177,-4.76695 1.607654,-7.30602 0.536478,-2.53906 1.072124,-5.16957 1.602486,-7.85327 1.060725,-5.36739 2.100521,-10.94858 3.0856,-16.44395 0.985079,-5.49538 1.915755,-10.90457 2.756938,-15.9272 0.841183,-5.02262 1.593048,-9.658805 2.222086,-13.607951 1.258077,-7.898291 2.023649,-13.048816 2.023649,-13.048816 0,0 -1.025222,5.098621 -2.734716,12.793535 -0.854747,3.847457 -1.880541,8.343902 -3.034957,13.176452 -1.154417,4.83256 -2.43702,10.00148 -3.805969,15.19339 -0.684475,2.59596 -1.390388,5.19747 -2.112533,7.76594 -0.722145,2.56846 -1.460511,5.10371 -2.209684,7.56646 -0.749173,2.46275 -1.509238,4.85304 -2.274797,7.13186 -0.765559,2.27883 -1.536566,4.4465 -2.307869,6.46318 -0.196543,0.51388 -0.392113,0.92277 -0.588595,1.41645 z"
         style="fill:url(#linearGradient74);stroke:#000000;stroke-width:0;fill-opacity:1"
         id="path59" />
      <path
         d="m 106.24003,177.83927 c -0.0168,-0.63676 -0.0314,-1.29915 -0.0377,-2.06137 -0.16343,-0.7597 -0.29308,-1.43485 -0.50074,-2.30528 -0.37832,-1.58575 -0.82669,-3.34527 -1.3317,-5.24258 -1.01003,-3.79462 -2.24757,-8.1402 -3.60857,-12.74754 -1.360999,-4.60734 -2.84535,-9.47651 -4.349604,-14.31851 -1.504253,-4.84199 -3.028164,-9.65661 -4.467944,-14.15521 -1.43978,-4.49859 -2.795486,-8.68104 -3.963066,-12.25816 -2.335159,-7.15425 -3.918107,-11.88765 -3.918107,-11.88765 0,0 4.050313,16.33842 8.232056,33.70906 2.090871,8.68531 4.214734,17.62879 5.881295,24.91682 0.83328,3.64402 1.551994,6.87442 2.09548,9.45162 0.42609,2.0205 0.6367,3.23569 0.81752,4.33824 l 4.79299,2.76727 z"
         style="fill:url(#linearGradient74);stroke:#000000;stroke-width:0;fill-opacity:1"
         id="path58" />
      <path
         d="m 111.44849,174.83222 c -0.0824,-0.35411 -0.16644,-0.69135 -0.24339,-1.09864 -0.23766,-1.25793 -0.44961,-2.76261 -0.63821,-4.47259 -0.18859,-1.70998 -0.35421,-3.62538 -0.49867,-5.70405 -0.14447,-2.07866 -0.26783,-4.32037 -0.37311,-6.68434 -0.10527,-2.36398 -0.19201,-4.85017 -0.26303,-7.41609 -0.14204,-5.13184 -0.22063,-10.58392 -0.25528,-16.02331 -0.0346,-5.4394 -0.0255,-10.86581 0.008,-15.9458 0.0332,-5.07998 0.0903,-9.81375 0.15193,-13.86737 0.12332,-8.107236 0.26407,-13.494782 0.26407,-13.494782 0,0 -0.32788,5.964317 -0.78084,14.856462 -0.45295,8.89214 -1.03072,20.71215 -1.52962,32.42334 -0.24945,5.8556 -0.47942,11.68428 -0.66404,17.10593 -0.18462,5.42166 -0.32382,10.43617 -0.39274,14.66474 -0.0345,2.11429 -0.0516,4.03192 -0.0475,5.7056 8.4e-4,0.35378 0.0138,0.56505 0.0165,0.89658 0.13123,0.61001 0.30183,1.31939 0.40205,1.85105 z"
         style="fill:url(#linearGradient74);stroke:#000000;stroke-width:0;fill-opacity:1"
         id="path56" />
      <path
         d="m 121.50576,169.02534 c 0.003,-0.0125 0.005,-0.0216 0.008,-0.0341 0.44442,-1.77455 1.0435,-3.86903 1.7725,-6.22857 0.72901,-2.35953 1.5884,-4.98413 2.55334,-7.81916 0.96493,-2.83503 2.0352,-5.88059 3.1874,-9.08161 1.15219,-3.20103 2.38599,-6.55789 3.67678,-10.01541 2.58157,-6.91504 5.39173,-14.23353 8.23567,-21.51755 2.84394,-7.28402 5.7218,-14.533325 8.43876,-21.310328 1.86749,-4.658142 3.48484,-8.629521 5.13716,-12.698967 -0.24311,-0.467811 -0.48732,-0.949215 -0.72916,-1.408183 -0.59751,1.345201 -1.04881,2.313482 -1.70015,3.800285 -2.05717,4.695855 -4.38399,10.108203 -6.98614,16.301848 -2.60215,6.193645 -5.47986,13.168455 -8.63927,20.989415 -3.15941,7.82097 -6.60013,16.48829 -10.32908,26.06611 -3.0788,7.90791 -6.47974,16.84689 -9.95443,26.03304 z"
         style="fill:url(#linearGradient74);stroke:#000000;stroke-width:0;fill-opacity:1"
         id="path55" />
      <path
         d="m 170.23095,110.58757 c -1.11409,-2.70401 -2.22682,-5.33973 -3.33054,-7.84242 -1.22329,-2.773793 -2.43701,-5.42412 -3.63441,-7.953003 -1.19739,-2.528883 -2.37853,-4.93634 -3.53621,-7.222815 -1.15769,-2.286475 -2.29204,-4.452259 -3.39618,-6.498828 -0.42188,-0.781979 -0.81568,-1.462478 -1.22835,-2.209685 -0.18604,0.457627 -0.40033,0.991338 -0.59014,1.458826 0.59613,1.147129 1.18809,2.256057 1.788,3.453019 1.09406,2.182906 2.18979,4.444773 3.2706,6.771163 1.08081,2.32639 2.14645,4.717613 3.18069,7.158736 1.03423,2.441127 2.0367,4.932387 2.99103,7.459497 0.95433,2.5271 1.86055,5.09013 2.70164,7.67446 0.42055,1.29217 0.8248,2.58964 1.21078,3.89072 0.20095,0.67736 0.38237,1.35753 0.57309,2.03657 z"
         style="fill:url(#linearGradient74);stroke:#000000;stroke-width:0;fill-opacity:1"
         id="path53" />
      <path
         d="m 161.71468,61.672205 c -0.26507,0.542804 -0.15401,0.287759 -0.46974,0.944645 -1.00403,2.088866 -2.26549,4.764417 -3.78995,8.092012 -0.87122,1.9017 -2.02421,4.520014 -3.06855,6.85953 0.23804,0.425227 0.47742,0.855339 0.71882,1.292427 0.55062,-1.354405 1.23239,-3.05702 1.74666,-4.317565 3.10902,-7.620497 4.07263,-9.91764 5.21364,-12.668478 z"
         style="fill:url(#linearGradient74);stroke:#000000;stroke-width:0;fill-opacity:1"
         id="path51" />
    </g>
  </g>
</svg>
