<?xml version="1.0" encoding="UTF-8" standalone="no"?>
<!-- Created with Inkscape (http://www.inkscape.org/) -->

<svg
   width="210mm"
   height="297mm"
   viewBox="0 0 210 297"
   version="1.1"
   id="svg1"
   inkscape:version="1.3 (0e150ed6c4, 2023-07-21)"
   sodipodi:docname="rmodvege-logo.svg"
   xmlns:inkscape="http://www.inkscape.org/namespaces/inkscape"
   xmlns:sodipodi="http://sodipodi.sourceforge.net/DTD/sodipodi-0.dtd"
   xmlns="http://www.w3.org/2000/svg"
   xmlns:svg="http://www.w3.org/2000/svg">
  <sodipodi:namedview
     id="namedview1"
     pagecolor="#505050"
     bordercolor="#eeeeee"
     borderopacity="1"
     inkscape:showpageshadow="0"
     inkscape:pageopacity="0"
     inkscape:pagecheckerboard="0"
     inkscape:deskcolor="#505050"
     inkscape:document-units="mm"
     inkscape:zoom="0.61537848"
     inkscape:cx="173.87673"
     inkscape:cy="382.69131"
     inkscape:window-width="1280"
     inkscape:window-height="731"
     inkscape:window-x="0"
     inkscape:window-y="0"
     inkscape:window-maximized="1"
     inkscape:current-layer="layer1" />
  <defs
     id="defs1">
    <inkscape:path-effect
       effect="powerstroke"
       id="path-effect4"
       is_visible="true"
       lpeversion="1.3"
       scale_width="1"
       interpolator_type="CubicBezierJohan"
       interpolator_beta="0.2"
       start_linecap_type="zerowidth"
       end_linecap_type="zerowidth"
       offset_points="0,4.9921382"
       linejoin_type="extrp_arc"
       miter_limit="4"
       not_jump="false"
       sort_points="true"
       message="&lt;b&gt;Ctrl + click&lt;/b&gt; on existing node and move it" />
    <inkscape:path-effect
       effect="fill_between_many"
       method="bsplinespiro"
       autoreverse="false"
       close="false"
       join="false"
       linkedpaths="#path4,0,1"
       id="path-effect5" />
  </defs>
  <g
     inkscape:label="Layer 1"
     inkscape:groupmode="layer"
     id="layer1">
    <path
       sodipodi:type="star"
       style="fill:#55a455;stroke-width:0;stroke:#55a455;stroke-dasharray:none;stroke-opacity:1;fill-opacity:1"
       id="path1"
       inkscape:flatsided="true"
       sodipodi:sides="6"
       sodipodi:cx="82.027618"
       sodipodi:cy="65.072037"
       sodipodi:r1="74.304352"
       sodipodi:r2="64.349457"
       sodipodi:arg1="1.0471976"
       sodipodi:arg2="1.5707963"
       inkscape:rounded="0"
       inkscape:randomized="0"
       d="m 119.17979,129.42149 -74.304351,0 L 7.7232666,65.072033 44.875446,0.72257865 119.1798,0.72258228 156.33197,65.07204 Z"
       inkscape:transform-center-x="1.0334187e-06"
       transform="translate(23.854062,38.669473)" />
    <text
       xml:space="preserve"
       style="font-style:normal;font-variant:normal;font-weight:normal;font-stretch:normal;font-size:16.93333333px;font-family:Carlito;-inkscape-font-specification:Carlito;letter-spacing:0px;fill:#ffffff;fill-opacity:1;stroke:#80c280;stroke-width:0;stroke-dasharray:none;stroke-opacity:1"
       x="105.57547"
       y="77.441681"
       id="text1"><tspan
         sodipodi:role="line"
         id="tspan1"
         style="font-style:normal;font-variant:normal;font-weight:normal;font-stretch:normal;font-family:Carlito;-inkscape-font-specification:Carlito;text-align:center;letter-spacing:0px;text-anchor:middle;fill:#ffffff;fill-opacity:1;stroke-width:0;stroke-dasharray:none;font-size:16.93333333px"
         x="105.57547"
         y="77.441681">rmodvege</tspan></text>
    <path
       style="fill:#38b03d;fill-opacity:1;stroke:#000000;stroke-width:0;stroke-dasharray:none;stroke-opacity:1"
       d="m 41.978252,241.95594 c 0,0 12.26227,-6.44902 8.439036,-26.54892 -3.823235,-20.0999 22.964105,74.46392 27.422038,28.99965 4.457935,-45.46426 5.267687,-32.66072 12.478133,-12.63492 7.210449,20.02579 19.714361,27.70233 21.627051,9.31322 1.91269,-18.38911 15.8299,-34.22975 15.73647,-14.80214 -0.0934,19.42761 12.54042,28.23931 23.06076,10.27977 10.52034,-17.95953 17.20348,-13.37273 15.51095,-5.61779 -1.69254,7.75494 -5.91957,17.43223 -5.91957,17.43223 l -22.15328,38.60822 -70.575182,-0.30285 z"
       id="path2" />
    <path
       style="fill:#41a300;fill-opacity:1;stroke:#000000;stroke-width:0;stroke-dasharray:none;stroke-opacity:1"
       d="m 49.535196,133.37251 c 5.21653,-7.61485 6.356911,-37.29499 6.356911,-37.29499 0,0 -1.808824,46.72203 2.48902,48.027 4.297841,1.30498 11.13341,-38.81326 11.13341,-38.81326 0,0 -4.67237,36.44853 -1.928067,37.89794 2.744303,1.44941 15.436292,-0.80281 15.436292,-0.80281 l 4.605192,-45.077795 c 0,0 -2.048992,40.790035 1.024495,43.520905 3.073485,2.73087 15.172611,7.88357 21.354851,2.05235 6.18224,-5.83123 0.2872,-37.45119 0.2872,-37.45119 0,0 12.56938,32.50842 10.4616,35.45258 -2.10777,2.94417 22.25843,-2.1296 22.25843,-2.1296 l -1.63919,-40.95799 c 0,0 7.14291,40.39703 9.66217,40.61537 2.51925,0.21833 -0.97076,-36.53586 -0.97076,-36.53586 0,0 7.7593,32.34718 6.55845,34.86811 -1.20084,2.52093 6.63571,-29.99756 6.63571,-29.99756 0,0 -4.34319,30.00596 -1.46284,32.25145 2.88034,2.2455 -9.81669,20.15569 -9.81669,20.15569 l -110.418773,2.89882 z"
       id="path6" />
    <path
       style="fill:#99ff55;fill-opacity:1;stroke:#000000;stroke-width:0;stroke-dasharray:none;stroke-opacity:1"
       d="m 44.637772,146.85422 1.54682,-37.7283 c 0,0 -0.204899,36.9255 6.420731,40.01411 6.625629,3.0886 6.497989,-28.34326 6.497989,-28.34326 0,0 -0.814559,17.88836 2.663688,23.53316 3.478246,5.64481 5.854739,3.63612 10.359162,-0.96907 4.50442,-4.60519 1.867604,-31.94074 1.867604,-31.94074 0,0 6.046202,29.26698 4.915897,32.38749 -1.130303,3.12051 11.422285,6.83389 16.58675,2.33115 5.164467,-4.50274 9.101217,-35.09821 9.101217,-35.09821 0,0 -4.27937,29.4131 0.91365,34.10898 5.19301,4.69588 18.10838,3.26663 20.65954,1.43765 2.55116,-1.82897 1.33688,-25.562 1.33688,-25.562 0,0 6.3905,22.50363 4.73115,26.4387 -1.65934,3.93507 5.38952,-33.03074 5.38952,-33.03074 0,0 -2.81316,28.37349 -0.0487,29.749 2.76446,1.37551 15.80411,5.75733 15.80411,5.75733 l 1.60896,-36.44685 3.16082,40.35505 c 0,0 -82.722131,13.47967 -84.705622,13.47967 -1.983492,0 -28.810156,-20.47312 -28.810156,-20.47312 z"
       id="path7" />
    <path
       style="fill:#ffffff;fill-opacity:1;stroke:#000000;stroke-width:0;stroke-dasharray:none;stroke-opacity:1"
       d="M 36.43005,166.27885 C 35.759929,123.9907 80.355714,32.058186 80.355714,32.058186 c 0,0 -48.732394,120.507534 -36.997721,133.795744 11.73467,13.28821 -0.382787,2.79722 12.179739,-0.5979 11.005768,-2.9744 27.406096,-84.557822 27.406096,-84.557822 0,0 -12.248602,82.409742 -19.273953,93.442382 -3.857773,6.05826 32.362298,1.614 32.362298,1.614 0,0 6.331717,7.38813 5.282027,-0.8683 -1.04968,-8.25643 -17.251828,-73.61084 -17.251828,-73.61084 0,0 25.328548,75.73205 22.807618,79.21197 -2.52093,3.47993 0.64157,-93.118231 0.64157,-93.118231 0,0 -0.16123,87.369301 5.4483,89.028651 5.60953,1.65935 7.48517,5.56549 3.34221,-6.12682 -2.69224,-7.59806 50.41526,-99.879907 50.41526,-99.879907 0,0 -50.15425,98.966337 -45.82183,103.383347 16.51453,16.83699 37.51333,0.14612 37.51333,0.14612 0,0 19.05641,-28.1401 17.17962,-37.27653 -4.39358,-21.38843 -79.628489,-35.99169 -79.628489,-35.99169 0,0 59.719689,4.33478 87.538939,34.39449 27.81925,30.0597 -9.71256,53.59119 -9.71256,53.59119 l -141.027677,-4.58 z"
       id="path8"
       sodipodi:nodetypes="ccsscscscscsscscscsccc" />
  </g>
</svg>
