<?xml version="1.0" encoding="UTF-8" standalone="no"?>
<!-- Created with Inkscape (http://www.inkscape.org/) -->

<svg
   width="210mm"
   height="297mm"
   viewBox="0 0 210 297"
   version="1.1"
   id="svg1"
   sodipodi:docname="rmodvege-logo_v4.svg"
   inkscape:version="1.3 (0e150ed6c4, 2023-07-21)"
   xmlns:inkscape="http://www.inkscape.org/namespaces/inkscape"
   xmlns:sodipodi="http://sodipodi.sourceforge.net/DTD/sodipodi-0.dtd"
   xmlns:xlink="http://www.w3.org/1999/xlink"
   xmlns="http://www.w3.org/2000/svg"
   xmlns:svg="http://www.w3.org/2000/svg">
  <sodipodi:namedview
     id="namedview1"
     pagecolor="#505050"
     bordercolor="#eeeeee"
     borderopacity="1"
     inkscape:showpageshadow="0"
     inkscape:pageopacity="0"
     inkscape:pagecheckerboard="0"
     inkscape:deskcolor="#505050"
     inkscape:document-units="mm"
     inkscape:zoom="0.48303454"
     inkscape:cx="526.87743"
     inkscape:cy="406.8032"
     inkscape:window-width="1280"
     inkscape:window-height="731"
     inkscape:window-x="0"
     inkscape:window-y="0"
     inkscape:window-maximized="1"
     inkscape:current-layer="layer1" />
  <defs
     id="defs1">
    <linearGradient
       id="linearGradient97"
       inkscape:collect="always">
      <stop
         style="stop-color:#ffffff;stop-opacity:1;"
         offset="0"
         id="stop97" />
      <stop
         style="stop-color:#8d8d8d;stop-opacity:1;"
         offset="1"
         id="stop98" />
    </linearGradient>
    <linearGradient
       id="linearGradient87"
       inkscape:collect="always">
      <stop
         style="stop-color:#378b4d;stop-opacity:1;"
         offset="0"
         id="stop87" />
      <stop
         style="stop-color:#1e5b1f;stop-opacity:1;"
         offset="1"
         id="stop88" />
    </linearGradient>
    <inkscape:path-effect
       effect="powerstroke"
       id="path-effect4"
       is_visible="true"
       lpeversion="1.3"
       scale_width="1"
       interpolator_type="CubicBezierJohan"
       interpolator_beta="0.2"
       start_linecap_type="zerowidth"
       end_linecap_type="zerowidth"
       offset_points="0,4.9921382"
       linejoin_type="extrp_arc"
       miter_limit="4"
       not_jump="false"
       sort_points="true"
       message="&lt;b&gt;Ctrl + click&lt;/b&gt; on existing node and move it" />
    <inkscape:path-effect
       effect="fill_between_many"
       method="bsplinespiro"
       autoreverse="false"
       close="false"
       join="false"
       linkedpaths="#path4,0,1"
       id="path-effect5" />
    <linearGradient
       inkscape:collect="always"
       xlink:href="#linearGradient87"
       id="linearGradient88"
       x1="105.48754"
       y1="29.154593"
       x2="105.48754"
       y2="177.03944"
       gradientUnits="userSpaceOnUse" />
    <linearGradient
       inkscape:collect="always"
       xlink:href="#linearGradient97"
       id="linearGradient99"
       gradientUnits="userSpaceOnUse"
       x1="105.25922"
       y1="92.12468"
       x2="105.25922"
       y2="59.268082" />
    <linearGradient
       inkscape:collect="always"
       xlink:href="#linearGradient97"
       id="linearGradient100"
       gradientUnits="userSpaceOnUse"
       x1="105.25922"
       y1="174.08427"
       x2="105.25922"
       y2="59.268082" />
    <linearGradient
       inkscape:collect="always"
       xlink:href="#linearGradient97"
       id="linearGradient101"
       gradientUnits="userSpaceOnUse"
       x1="105.25922"
       y1="174.08427"
       x2="105.25922"
       y2="59.268082" />
    <linearGradient
       inkscape:collect="always"
       xlink:href="#linearGradient97"
       id="linearGradient102"
       gradientUnits="userSpaceOnUse"
       x1="105.25922"
       y1="174.08427"
       x2="105.25922"
       y2="59.268082" />
    <linearGradient
       inkscape:collect="always"
       xlink:href="#linearGradient97"
       id="linearGradient103"
       gradientUnits="userSpaceOnUse"
       x1="105.25922"
       y1="174.08427"
       x2="105.25922"
       y2="59.268082" />
    <linearGradient
       inkscape:collect="always"
       xlink:href="#linearGradient97"
       id="linearGradient104"
       gradientUnits="userSpaceOnUse"
       x1="105.25922"
       y1="174.08427"
       x2="105.25922"
       y2="59.268082" />
    <linearGradient
       inkscape:collect="always"
       xlink:href="#linearGradient97"
       id="linearGradient105"
       gradientUnits="userSpaceOnUse"
       x1="105.25922"
       y1="174.08427"
       x2="105.25922"
       y2="59.268082" />
    <linearGradient
       inkscape:collect="always"
       xlink:href="#linearGradient97"
       id="linearGradient106"
       gradientUnits="userSpaceOnUse"
       x1="105.25922"
       y1="174.08427"
       x2="105.25922"
       y2="59.268082" />
    <linearGradient
       inkscape:collect="always"
       xlink:href="#linearGradient97"
       id="linearGradient107"
       gradientUnits="userSpaceOnUse"
       x1="105.25922"
       y1="174.08427"
       x2="105.25922"
       y2="59.268082" />
    <linearGradient
       inkscape:collect="always"
       xlink:href="#linearGradient97"
       id="linearGradient108"
       gradientUnits="userSpaceOnUse"
       x1="105.25922"
       y1="174.08427"
       x2="105.25922"
       y2="59.268082" />
    <linearGradient
       inkscape:collect="always"
       xlink:href="#linearGradient97"
       id="linearGradient109"
       gradientUnits="userSpaceOnUse"
       x1="105.25922"
       y1="174.08427"
       x2="105.25922"
       y2="59.268082" />
  </defs>
  <g
     inkscape:label="Layer 1"
     inkscape:groupmode="layer"
     id="layer1">
    <g
       id="g87"
       style="fill:url(#linearGradient88);fill-opacity:1"
       inkscape:export-filename="rmodvege-logo.png.png"
       inkscape:export-xdpi="47.52"
       inkscape:export-ydpi="47.52">
      <path
         d="m 46.763037,143.9137 c 0.375278,-1.01499 0.755788,-2.02866 1.085205,-3.0546 0.464852,-1.44774 0.884995,-2.9056 1.262972,-4.37079 0.377977,-1.46519 0.71345,-2.93772 1.009758,-4.41523 0.296307,-1.47752 0.553236,-2.95997 0.773079,-4.44469 0.219844,-1.48472 0.402803,-2.97185 0.551388,-4.45865 0.148584,-1.4868 0.262667,-2.97333 0.345198,-4.45709 0.08253,-1.48376 0.133346,-2.96496 0.15503,-4.44056 0.02168,-1.47559 0.01432,-2.94569 -0.01964,-4.40799 -0.03396,-1.46231 -0.0944,-2.91656 -0.1788,-4.36046 -0.0844,-1.4439 -0.192834,-2.87756 -0.322461,-4.29793 -0.129627,-1.42037 -0.280448,-2.827667 -0.450102,-4.219382 -0.169653,-1.391715 -0.357765,-2.767907 -0.562239,-4.125846 -0.204475,-1.357939 -0.425302,-2.697769 -0.659392,-4.016809 -0.468179,-2.638081 -0.990233,-5.193262 -1.545642,-7.645012 -0.555408,-2.45175 -1.144118,-4.799937 -1.745113,-7.024377 -0.600994,-2.22444 -1.21459,-4.325121 -1.819527,-6.28127 -0.291378,-0.942214 -0.566492,-1.735184 -0.851628,-2.60811 l -2.258776,1.304313 v 74.304513 z"
         style="fill:url(#linearGradient88);stroke:#55a455;stroke-width:0;fill-opacity:1"
         id="path84" />
      <path
         d="m 163.98017,144.50281 c 0.0564,-1.10443 0.1396,-2.19925 0.18087,-3.30781 0.1022,-2.74516 0.15937,-5.4997 0.17725,-8.24859 0.0179,-2.7489 -0.004,-5.49208 -0.0584,-8.21397 -0.0546,-2.7219 -0.14215,-5.4227 -0.25735,-8.08685 -0.11521,-2.66415 -0.2577,-5.29155 -0.42168,-7.86722 -0.16398,-2.57566 -0.34946,-5.09969 -0.55036,-7.55612 -0.12488,-1.526938 -0.26454,-2.974495 -0.39997,-4.445728 -0.70303,0.85479 -1.37629,1.656673 -2.11667,2.580721 -1.35818,1.695097 -2.77383,3.504637 -4.2292,5.418787 -1.45537,1.91416 -2.95023,3.93314 -4.46588,6.04821 -1.51565,2.11508 -3.05242,4.32603 -4.59145,6.62389 -1.53902,2.29786 -3.08042,4.68279 -4.60592,7.1453 -1.5255,2.46251 -3.03474,5.0029 -4.5098,7.61194 -1.47506,2.60903 -2.91589,5.28637 -4.30361,8.0238 -0.69386,1.36871 -1.37457,2.75272 -2.03967,4.15013 -0.66511,1.39741 -1.3144,2.80846 -1.94614,4.2323 -0.63173,1.42384 -1.24593,2.86026 -1.83968,4.30826 -0.59375,1.44801 -1.16708,2.90761 -1.71824,4.37752 -0.55115,1.4699 -1.07993,2.94998 -1.58388,4.43952 -0.50395,1.48953 -0.98345,2.98843 -1.43557,4.49533 -0.21102,0.7033 -0.39478,1.41408 -0.59376,2.1208 z"
         style="fill:url(#linearGradient88);stroke:#55a455;stroke-width:0;fill-opacity:1"
         id="path79" />
      <path
         d="m 170.23095,87.990495 c -0.81317,0.895618 -1.38982,1.495933 -2.38952,2.637565 -1.05307,1.202597 -2.20051,2.53719 -3.42459,3.995105 -0.0523,0.06225 -0.11334,0.139358 -0.16588,0.202055 0.0696,0.507768 0.14338,0.974966 0.21187,1.491382 0.29748,2.242994 0.58383,4.566778 0.85214,6.960818 0.26831,2.39403 0.51849,4.8586 0.74518,7.38404 0.22669,2.52545 0.42992,5.11167 0.60255,7.74888 0.17262,2.63722 0.31504,5.32546 0.42116,8.05481 0.10612,2.72935 0.17592,5.49997 0.20309,8.30182 0.0251,2.59241 0.004,5.21652 -0.0486,7.85482 l 2.99258,-1.72806 z"
         style="fill:url(#linearGradient88);stroke:#55a455;stroke-width:0;fill-opacity:1"
         id="path77" />
      <path
         d="M 105.88191,29.436963 44.737838,64.738167 c 0.558802,1.373068 1.119524,2.742161 1.698604,4.295345 0.783685,2.101965 1.575643,4.361267 2.34766,6.756177 0.772018,2.394911 1.524072,4.92574 2.228288,7.571114 0.352108,1.322687 0.69236,2.674095 1.016992,4.051433 0.324632,1.377337 0.633835,2.780301 0.923975,4.206978 0.29014,1.426677 0.561139,2.876831 0.80977,4.347538 0.24863,1.470707 0.47479,2.962135 0.674894,4.471558 0.200104,1.50943 0.37427,3.03673 0.518831,4.57957 0.144561,1.54283 0.25958,3.10113 0.341581,4.67207 0.082,1.57093 0.13072,3.15482 0.143144,4.74854 0.01243,1.59373 -0.01128,3.19729 -0.07545,4.80849 -0.06417,1.61121 -0.168481,3.23009 -0.31626,4.85346 -0.14778,1.62336 -0.339336,3.25112 -0.577743,4.88135 -0.238406,1.63023 -0.523845,3.26302 -0.859896,4.89479 -0.33605,1.63178 -0.722524,3.26265 -1.163236,4.89066 -0.440712,1.62801 -0.935892,3.25312 -1.488281,4.87205 -0.252788,0.74087 -0.561462,1.47515 -0.838709,2.21331 l 13.471013,7.77782 c 0.192758,-0.70277 0.39789,-1.33813 0.583943,-2.0743 0.479749,-1.89825 0.937364,-3.90174 1.373043,-5.97948 0.435679,-2.07773 0.849432,-4.23014 1.241785,-6.42596 0.392353,-2.19582 0.76334,-4.43494 1.11311,-6.68745 0.349771,-2.25251 0.678571,-4.51819 0.986503,-6.76599 0.615864,-4.49561 1.148481,-8.92023 1.601453,-13.02866 0.452972,-4.10844 0.826381,-7.90048 1.122412,-11.13059 0.592062,-6.460217 0.875915,-10.672735 0.875915,-10.672735 0,0 0.05007,0.553365 0.113689,1.618506 0.06361,1.06514 0.140912,2.64193 0.19637,4.688602 0.05546,2.046673 0.08906,4.563477 0.0646,7.508067 -0.02447,2.9446 -0.107019,6.31696 -0.283187,10.07587 -0.08809,1.87946 -0.199532,3.85528 -0.338998,5.92264 -0.139466,2.06736 -0.307126,4.22611 -0.506945,6.47092 -0.19982,2.24481 -0.432106,4.57588 -0.70125,6.98769 -0.269144,2.41181 -0.574984,4.90457 -0.922424,7.47293 -0.34744,2.56835 -0.736281,5.21219 -1.170988,7.92665 -0.339897,2.12242 -0.732545,4.32274 -1.13068,6.5288 l 33.277555,19.21278 c -0.18082,-1.10255 -0.39143,-2.31774 -0.81752,-4.33824 -0.543486,-2.5772 -1.2622,-5.8076 -2.09548,-9.45162 -1.666561,-7.28803 -3.790424,-16.23151 -5.881295,-24.91682 -4.181743,-17.37064 -8.232056,-33.70906 -8.232056,-33.70906 0,0 1.179726,3.53915 3.000334,9.2382 0.910304,2.84952 1.980727,6.2392 3.143994,9.99629 1.163266,3.75709 2.419113,7.88146 3.700549,12.20132 1.281437,4.31986 2.588698,8.835 3.853512,13.37283 1.264813,4.53783 2.487412,9.09824 3.600812,13.50925 0.5567,2.2055 1.08618,4.37366 1.57975,6.48281 0.49357,2.10914 0.95118,4.15965 1.36477,6.12934 0.27593,1.31404 0.49973,2.53071 0.73381,3.76669 l 0.84181,0.48628 1.44849,-0.83612 c 0.19912,-1.63143 0.35839,-2.79152 0.59583,-4.88239 0.92735,-8.16611 2.11168,-19.45382 3.27887,-30.87461 2.33438,-22.84157 4.59972,-46.215779 4.59972,-46.215779 0,0 -0.2622,4.924989 -0.63459,12.374439 -0.37239,7.44945 -0.85485,17.4233 -1.29501,27.52028 -0.22008,5.04849 -0.42988,10.12758 -0.60978,14.93759 -0.17991,4.81002 -0.32985,9.35089 -0.4315,13.32219 -0.10165,3.97129 -0.15472,7.373 -0.14004,9.90534 0.002,0.32791 0.0154,0.50702 0.0196,0.80511 l 3.19206,-1.84329 c 0.0507,-0.14264 0.0979,-0.29127 0.14882,-0.43357 0.67785,-1.8949 1.37289,-3.76004 2.0836,-5.59501 0.71071,-1.83496 1.4372,-3.63971 2.17713,-5.41465 0.73993,-1.77495 1.49327,-3.51998 2.25877,-5.23483 0.7655,-1.71484 1.54267,-3.39979 2.33009,-5.05447 0.78743,-1.65467 1.58538,-3.27918 2.39107,-4.8736 0.8057,-1.59442 1.61933,-3.15865 2.43965,-4.69274 0.82032,-1.53408 1.6471,-3.03768 2.4784,-4.51135 0.83129,-1.47367 1.66717,-2.91731 2.50579,-4.33049 0.83862,-1.41318 1.68003,-2.79597 2.52233,-4.14858 1.68459,-2.70522 3.37292,-5.28952 5.05033,-7.75198 1.67741,-2.46246 3.34368,-4.80325 4.98471,-7.02231 1.64103,-2.21906 3.2568,-4.31606 4.83226,-6.29109 1.57547,-1.97504 3.11076,-3.82794 4.59146,-5.55832 1.4807,-1.730371 2.90655,-3.338398 4.2633,-4.823476 0.53567,-0.586331 1.00612,-1.065313 1.51929,-1.613338 -0.0262,-0.272726 -0.0489,-0.568232 -0.0754,-0.838709 -0.45195,-4.612935 -0.94202,-8.895167 -1.42317,-12.723771 -0.48115,-3.828604 -0.95335,-7.203635 -1.36891,-10.001974 -0.41556,-2.798338 -0.77473,-5.020099 -1.02991,-6.542236 -0.25517,-1.522137 -0.40617,-2.34456 -0.40617,-2.34456 0,0 0.17776,0.67538 0.4842,1.947168 0.30645,1.271788 0.74137,3.139789 1.25471,5.526278 0.51333,2.386489 1.10533,5.291028 1.72599,8.635132 0.62066,3.344104 1.27017,7.128064 1.89859,11.272697 0.16624,1.096411 0.32442,2.281699 0.48679,3.427181 0.25139,-0.261966 0.53729,-0.57864 0.78187,-0.830441 1.2036,-1.239149 2.32375,-2.355012 3.34501,-3.347599 0.87759,-0.852946 1.3519,-1.250886 2.07481,-1.92133 V 66.589217 Z"
         style="fill:url(#linearGradient88);stroke:#55a455;stroke-width:0;fill-opacity:1"
         id="path75" />
    </g>
    <path
       style="fill:#38b03d;fill-opacity:1;stroke:#000000;stroke-width:0;stroke-dasharray:none;stroke-opacity:1"
       d="m 41.978252,241.95594 c 0,0 12.26227,-6.44902 8.439036,-26.54892 -3.823235,-20.0999 22.964105,74.46392 27.422038,28.99965 4.457935,-45.46426 5.267687,-32.66072 12.478133,-12.63492 7.210449,20.02579 19.714361,27.70233 21.627051,9.31322 1.91269,-18.38911 15.8299,-34.22975 15.73647,-14.80214 -0.0934,19.42761 12.54042,28.23931 23.06076,10.27977 10.52034,-17.95953 17.20348,-13.37273 15.51095,-5.61779 -1.69254,7.75494 -5.91957,17.43223 -5.91957,17.43223 l -22.15328,38.60822 -70.575182,-0.30285 z"
       id="path2" />
    <text
       xml:space="preserve"
       style="font-style:normal;font-variant:normal;font-weight:normal;font-stretch:normal;font-size:22.5778px;font-family:Quicksand;-inkscape-font-specification:Quicksand;letter-spacing:0px;fill:url(#linearGradient99);fill-opacity:1;stroke:#80c280;stroke-width:0;stroke-dasharray:none;stroke-opacity:1"
       x="105.57547"
       y="89.612534"
       id="text1"><tspan
         sodipodi:role="line"
         id="tspan1"
         style="font-style:normal;font-variant:normal;font-weight:normal;font-stretch:normal;font-size:22.5778px;font-family:Quicksand;-inkscape-font-specification:Quicksand;text-align:center;letter-spacing:0px;text-anchor:middle;fill:url(#linearGradient99);fill-opacity:1;stroke-width:0;stroke-dasharray:none"
         x="105.57547"
         y="89.612534">rmodvege</tspan></text>
    <g
       id="g88"
       style="fill:url(#linearGradient109);fill-opacity:1">
      <path
         d="m 162.48259,94.908936 c 0.0584,0.607287 0.11105,1.249544 0.16795,1.867586 0.53156,-0.646312 1.09321,-1.34606 1.60042,-1.951302 -0.0728,-0.530827 -0.14783,-1.037969 -0.2217,-1.559078 -0.49728,0.518223 -1.02419,1.084821 -1.54667,1.642794 z"
         style="fill:url(#linearGradient100);fill-opacity:1;stroke:#55a455;stroke-width:0"
         id="path87" />
      <path
         d="m 162.48259,94.908936 c 0.52248,-0.557973 1.04939,-1.124571 1.54667,-1.642794 -0.16237,-1.145482 -0.32055,-2.33077 -0.48679,-3.427181 -0.62842,-4.144633 -1.27793,-7.928593 -1.89859,-11.272697 -0.62066,-3.344104 -1.21266,-6.248643 -1.72599,-8.635132 -0.51334,-2.386489 -0.94826,-4.25449 -1.25471,-5.526278 -0.30644,-1.271788 -0.4842,-1.947168 -0.4842,-1.947168 0,0 0.151,0.822423 0.40617,2.34456 0.25518,1.522137 0.61435,3.743898 1.02991,6.542236 0.41556,2.798339 0.88776,6.17337 1.36891,10.001974 0.48115,3.828604 0.97122,8.110836 1.42317,12.723771 0.0265,0.270477 0.0492,0.565983 0.0754,0.838709 z"
         style="fill:url(#linearGradient101);fill-opacity:1;stroke:#000000;stroke-width:0"
         id="path86" />
      <path
         d="m 46.763037,143.9137 3.358968,1.9389 c 0.277247,-0.73816 0.585921,-1.47244 0.838709,-2.21331 0.552389,-1.61893 1.047569,-3.24404 1.488281,-4.87205 0.440712,-1.62801 0.827186,-3.25888 1.163236,-4.89066 0.336051,-1.63177 0.62149,-3.26456 0.859896,-4.89479 0.238407,-1.63023 0.429963,-3.25799 0.577743,-4.88135 0.147779,-1.62337 0.25209,-3.24225 0.31626,-4.85346 0.06417,-1.6112 0.08787,-3.21476 0.07545,-4.80849 -0.01242,-1.59372 -0.06114,-3.17761 -0.143144,-4.74854 -0.082,-1.57094 -0.19702,-3.12924 -0.341581,-4.67207 -0.144561,-1.54284 -0.318727,-3.07014 -0.518831,-4.57957 C 54.23792,98.928887 54.01176,97.437459 53.76313,95.966752 53.514499,94.496045 53.2435,93.045891 52.95336,91.619214 52.66322,90.192537 52.354017,88.789573 52.029385,87.412236 51.70475,86.034898 51.364498,84.68349 51.01239,83.360803 50.308174,80.715429 49.55612,78.1846 48.784102,75.789689 c -0.772017,-2.39491 -1.563975,-4.654212 -2.34766,-6.756177 -0.57908,-1.553184 -1.139802,-2.922277 -1.698604,-4.295345 l -0.946713,0.546737 c 0.285136,0.872926 0.56025,1.665896 0.851628,2.60811 0.604937,1.956149 1.218533,4.05683 1.819527,6.28127 0.600995,2.22444 1.189705,4.572627 1.745113,7.024377 0.555409,2.45175 1.077463,5.006931 1.545642,7.645012 0.23409,1.31904 0.454917,2.65887 0.659392,4.016809 0.204474,1.357939 0.392586,2.734131 0.562239,4.125846 0.169654,1.391715 0.320475,2.799012 0.450102,4.219382 0.129627,1.42037 0.238065,2.85403 0.322461,4.29793 0.0844,1.4439 0.144842,2.89815 0.1788,4.36046 0.03396,1.4623 0.04132,2.9324 0.01964,4.40799 -0.02168,1.4756 -0.0725,2.9568 -0.15503,4.44056 -0.08253,1.48376 -0.196614,2.97029 -0.345198,4.45709 -0.148585,1.4868 -0.331544,2.97393 -0.551388,4.45865 -0.219843,1.48472 -0.476772,2.96717 -0.773079,4.44469 -0.296308,1.47751 -0.631781,2.95004 -1.009758,4.41523 -0.377977,1.46519 -0.79812,2.92305 -1.262972,4.37079 -0.329417,1.02594 -0.709927,2.03961 -1.085205,3.0546 z"
         style="fill:url(#linearGradient102);fill-opacity:1;stroke:#000000;stroke-width:0"
         id="path85" />
      <path
         d="m 67.811365,156.06593 c 0.398135,-2.20606 0.790783,-4.40638 1.13068,-6.5288 0.434707,-2.71446 0.823548,-5.3583 1.170988,-7.92665 0.34744,-2.56836 0.65328,-5.06112 0.922424,-7.47293 0.269144,-2.41181 0.50143,-4.74288 0.70125,-6.98769 0.199819,-2.24481 0.367479,-4.40356 0.506945,-6.47092 0.139466,-2.06736 0.250913,-4.04318 0.338998,-5.92264 0.176168,-3.75891 0.258717,-7.13127 0.283187,-10.07587 0.02447,-2.94459 -0.0091,-5.461394 -0.0646,-7.508067 -0.05546,-2.046672 -0.132756,-3.623462 -0.19637,-4.688602 -0.06361,-1.065141 -0.113689,-1.618506 -0.113689,-1.618506 0,0 -0.283853,4.212518 -0.875915,10.672735 -0.296031,3.23011 -0.66944,7.02215 -1.122412,11.13059 -0.452972,4.10843 -0.985589,8.53305 -1.601453,13.02866 -0.307932,2.2478 -0.636732,4.51348 -0.986503,6.76599 -0.34977,2.25251 -0.720757,4.49163 -1.11311,6.68745 -0.392353,2.19582 -0.806106,4.34823 -1.241785,6.42596 -0.435679,2.07774 -0.893294,4.08123 -1.373043,5.97948 -0.186053,0.73617 -0.391185,1.37153 -0.583943,2.0743 z"
         style="fill:url(#linearGradient103);fill-opacity:1;stroke:#000000;stroke-width:0"
         id="path83" />
      <path
         d="m 105.0401,177.5597 c -0.23408,-1.23598 -0.45788,-2.45265 -0.73381,-3.76669 -0.41359,-1.96969 -0.8712,-4.0202 -1.36477,-6.12934 -0.49357,-2.10915 -1.02305,-4.27731 -1.57975,-6.48281 -1.1134,-4.41101 -2.335999,-8.97142 -3.600812,-13.50925 -1.264814,-4.53783 -2.572075,-9.05297 -3.853512,-13.37283 -1.281436,-4.31986 -2.537283,-8.44423 -3.700549,-12.20132 -1.163267,-3.75709 -2.23369,-7.14677 -3.143994,-9.99629 -1.820608,-5.69905 -3.000334,-9.2382 -3.000334,-9.2382 0,0 4.050313,16.33842 8.232056,33.70906 2.090871,8.68531 4.214734,17.62879 5.881295,24.91682 0.83328,3.64402 1.551994,6.87442 2.09548,9.45162 0.42609,2.0205 0.6367,3.23569 0.81752,4.33824 z"
         style="fill:url(#linearGradient104);fill-opacity:1;stroke:#000000;stroke-width:0"
         id="path82" />
      <path
         d="m 112.71353,174.10203 c -0.004,-0.29809 -0.0177,-0.4772 -0.0196,-0.80511 -0.0147,-2.53234 0.0384,-5.93405 0.14004,-9.90534 0.10165,-3.9713 0.25159,-8.51217 0.4315,-13.32219 0.1799,-4.81001 0.3897,-9.8891 0.60978,-14.93759 0.44016,-10.09698 0.92262,-20.07083 1.29501,-27.52028 0.37239,-7.44945 0.63459,-12.374439 0.63459,-12.374439 0,0 -2.26534,23.374209 -4.59972,46.215779 -1.16719,11.42079 -2.35152,22.7085 -3.27887,30.87461 -0.23744,2.09087 -0.39671,3.25096 -0.59583,4.88239 z"
         style="fill:url(#linearGradient105);fill-opacity:1;stroke:#000000;stroke-width:0"
         id="path81" />
      <path
         d="m 122.67107,168.35303 c 0.19898,-0.70672 0.38274,-1.4175 0.59376,-2.1208 0.45212,-1.5069 0.93162,-3.0058 1.43557,-4.49533 0.50395,-1.48954 1.03273,-2.96962 1.58388,-4.43952 0.55116,-1.46991 1.12449,-2.92951 1.71824,-4.37752 0.59375,-1.448 1.20795,-2.88442 1.83968,-4.30826 0.63174,-1.42384 1.28103,-2.83489 1.94614,-4.2323 0.6651,-1.39741 1.34581,-2.78142 2.03967,-4.15013 1.38772,-2.73743 2.82855,-5.41477 4.30361,-8.0238 1.47506,-2.60904 2.9843,-5.14943 4.5098,-7.61194 1.5255,-2.46251 3.0669,-4.84744 4.60592,-7.1453 1.53903,-2.29786 3.0758,-4.50881 4.59145,-6.62389 1.51565,-2.11507 3.01051,-4.13405 4.46588,-6.04821 1.45537,-1.91415 2.87102,-3.72369 4.2292,-5.418787 0.74038,-0.924048 1.41364,-1.725931 2.11667,-2.580721 -0.0569,-0.618042 -0.10955,-1.260299 -0.16795,-1.867586 -0.51317,0.548025 -0.98362,1.027007 -1.51929,1.613338 -1.35675,1.485078 -2.7826,3.093105 -4.2633,4.823476 -1.4807,1.73038 -3.01599,3.58328 -4.59146,5.55832 -1.57546,1.97503 -3.19123,4.07203 -4.83226,6.29109 -1.64103,2.21906 -3.3073,4.55985 -4.98471,7.02231 -1.67741,2.46246 -3.36574,5.04676 -5.05033,7.75198 -0.8423,1.35261 -1.68371,2.7354 -2.52233,4.14858 -0.83862,1.41318 -1.6745,2.85682 -2.50579,4.33049 -0.8313,1.47367 -1.65808,2.97727 -2.4784,4.51135 -0.82032,1.53409 -1.63395,3.09832 -2.43965,4.69274 -0.80569,1.59442 -1.60364,3.21893 -2.39107,4.8736 -0.78742,1.65468 -1.56459,3.33963 -2.33009,5.05447 -0.7655,1.71485 -1.51884,3.45988 -2.25877,5.23483 -0.73993,1.77494 -1.46642,3.57969 -2.17713,5.41465 -0.71071,1.83497 -1.40575,3.70011 -2.0836,5.59501 -0.0509,0.1423 -0.0981,0.29093 -0.14882,0.43357 z"
         style="fill:url(#linearGradient106);fill-opacity:1;stroke:#000000;stroke-width:0"
         id="path80" />
      <path
         d="m 167.23837,142.62179 c 0.0527,-2.6383 0.0737,-5.26241 0.0486,-7.85482 -0.0272,-2.80185 -0.097,-5.57247 -0.20309,-8.30182 -0.10612,-2.72935 -0.24854,-5.41759 -0.42116,-8.05481 -0.17263,-2.63721 -0.37586,-5.22343 -0.60255,-7.74888 -0.22669,-2.52544 -0.47687,-4.99001 -0.74518,-7.38404 -0.26831,-2.39404 -0.55466,-4.717824 -0.85214,-6.960818 -0.0685,-0.516416 -0.14224,-0.983614 -0.21187,-1.491382 -0.50721,0.605242 -1.06886,1.30499 -1.60042,1.951302 0.13543,1.471233 0.27509,2.91879 0.39997,4.445728 0.2009,2.45643 0.38638,4.98046 0.55036,7.55612 0.16398,2.57567 0.30647,5.20307 0.42168,7.86722 0.1152,2.66415 0.20276,5.36495 0.25735,8.08685 0.0546,2.72189 0.0763,5.46507 0.0584,8.21397 -0.0179,2.74889 -0.0751,5.50343 -0.17725,8.24859 -0.0413,1.10856 -0.12449,2.20338 -0.18087,3.30781 z"
         style="fill:url(#linearGradient107);fill-opacity:1;stroke:#000000;stroke-width:0"
         id="path78" />
      <path
         d="m 170.23095,87.166772 c -0.72291,0.670444 -1.19722,1.068384 -2.07481,1.92133 -1.02126,0.992587 -2.14141,2.10845 -3.34501,3.347599 -0.24458,0.251801 -0.53048,0.568475 -0.78187,0.830441 0.0739,0.521109 0.1489,1.028251 0.2217,1.559078 0.0525,-0.0627 0.11361,-0.139807 0.16588,-0.202055 1.22408,-1.457915 2.37152,-2.792508 3.42459,-3.995105 0.9997,-1.141632 1.57635,-1.741947 2.38952,-2.637565 z"
         style="fill:url(#linearGradient108);fill-opacity:1;stroke:#000000;stroke-width:0"
         id="path76" />
    </g>
  </g>
</svg>
