<?xml version="1.0" encoding="UTF-8" standalone="no"?>
<!-- Generator: Adobe Illustrator 28.0.0, SVG Export Plug-In . SVG Version: 6.00 Build 0)  -->

<svg
   version="1.1"
   x="0px"
   y="0px"
   viewBox="0 0 170.42 184.51"
   overflow="visible"
   xml:space="preserve"
   id="svg52"
   sodipodi:docname="growr-logo.svg"
   inkscape:version="1.3 (0e150ed6c4, 2023-07-21)"
   xmlns:inkscape="http://www.inkscape.org/namespaces/inkscape"
   xmlns:sodipodi="http://sodipodi.sourceforge.net/DTD/sodipodi-0.dtd"
   xmlns="http://www.w3.org/2000/svg"
   xmlns:svg="http://www.w3.org/2000/svg"><defs
   id="defs52">&#10;	&#10;	&#10;	&#10;	&#10;	&#10;	&#10;	&#10;	&#10;	&#10;	&#10;	&#10;	&#10;</defs><sodipodi:namedview
   id="namedview52"
   pagecolor="#505050"
   bordercolor="#eeeeee"
   borderopacity="1"
   inkscape:showpageshadow="0"
   inkscape:pageopacity="0"
   inkscape:pagecheckerboard="0"
   inkscape:deskcolor="#505050"
   inkscape:zoom="2.1566893"
   inkscape:cx="66.073496"
   inkscape:cy="95.748609"
   inkscape:window-width="1280"
   inkscape:window-height="731"
   inkscape:window-x="0"
   inkscape:window-y="0"
   inkscape:window-maximized="1"
   inkscape:current-layer="svg52" />&#10;<path
   fill="none"
   d="m -677.15,599.1 c -1.72,5.45 -3.45,10.91 -5.34,16.91 h 0.26 c 4.53,-2.03 6.81,-9.44 5.08,-16.91 z"
   id="path1" /><path
   fill="none"
   d="m -679.49,254.26 c 0.01,0.81 0.17,1.62 0.72,2.58 8.71,-34.55 22.68,-66.59 43.95,-94.98 -5.15,-6.19 -9.87,-11.7 -9.87,-11.7 l 6.61,-41.61 -6.18,-15.45 c -12.26,22.56 -20.87,46.46 -26.56,71.49 -6.72,29.53 -9.16,59.46 -8.67,89.67 z"
   id="path2" /><path
   fill="none"
   d="m -699.89,589.54 c 0.06,0.98 0.28,1.95 0.53,3.65 3.91,-8.63 6.69,-52.22 4.05,-64.27 -1.92,7.46 -3.6,13.76 -5.12,20.09 -0.61,2.54 -1.33,5.18 -1.23,7.75 0.42,10.93 1.14,21.85 1.77,32.78 z"
   id="path3" /><path
   fill="none"
   d="m -682.9,339.08 c -3.34,11.67 -6.75,24.12 -10.54,36.46 -1,3.24 -2.74,6.48 -4.9,9.09 -3.92,4.75 -5.2,9.6 -3.39,15.59 1.82,6.02 3.12,12.21 4.49,18.36 1.98,8.83 3.82,17.7 5.72,26.55 5.79,-23.3 10.89,-94.73 8.62,-106.05 z"
   id="path4" /><path
   fill="none"
   d="m -800.56,520.84 c 20.4,28.96 26.15,61.35 26.38,95.17 4.94,0 9.23,0 13.78,0 3.28,-34.14 -18.08,-85.25 -40.16,-95.17 z"
   id="path5" /><path
   d="m -771.69,229.9 v 0 c -0.11,-0.06 -0.1,-0.05 0,0 z"
   id="path6" /><path
   fill="#ffffff"
   d="m -682.54,616.15 c 0.11,-0.04 0.21,-0.1 0.31,-0.15 h -0.26 c -0.02,0.05 -0.03,0.1 -0.05,0.15 z"
   id="path7" /><g
   id="g7"
   style="fill:#99d97f;fill-opacity:1"
   inkscape:export-filename="growr-logo-240x277.png"
   inkscape:export-xdpi="162.12793"
   inkscape:export-ydpi="162.12793">&#10;		<polygon
   fill="#7dff00"
   points="84.43,11.23 13.37,52.25 13.37,134.3 84.43,175.32 155.48,134.3 155.48,52.25 "
   id="polygon7"
   style="fill:#99d97f;fill-opacity:1" />&#10;	</g><g
   id="g13">&#10;		<g
   id="g8">&#10;			<path
   fill="#047f36"
   d="M 43.05,120.26 C 42.01,120 41.4,119.71 40.93,119.3 l 5.34,-2.93 c -3.22,-0.7 -5.66,-3.1 -5.83,-5.71 -0.17,-3.08 3.68,-6.18 7.63,-6.09 2.41,0.06 4.35,0.06 9.6,0.06 l -1.16,1.65 h -3.97 c 1.1,0.81 2.2,2.06 2.44,3.86 0.55,4.03 -5.05,6.79 -8.24,6.27 l -3.65,2.03 c 2.64,0.87 13.46,-0.41 13.46,3.63 0,3.83 -5.92,5.08 -9.22,5.08 -8.14,-0.01 -10.23,-2.36 -4.28,-6.89 z m 13.17,2.47 c 0,-1.28 -3.63,-1.77 -6.44,-1.86 -3.02,-0.09 -4.99,-0.26 -6.35,-0.52 -5.86,3.68 5.16,7.57 10.96,4.29 1.22,-0.69 1.83,-1.16 1.83,-1.91 z m -3.98,-12.27 c -0.61,-3.86 -2.41,-5.48 -5.08,-5.48 -2.81,0 -4.35,1.91 -4.12,5.48 0.38,3.34 2.29,5.54 5.02,5.54 2.76,0 4.7,-2.26 4.18,-5.54 z"
   id="path8" />&#10;		</g>&#10;		<g
   id="g9">&#10;			<path
   fill="#047f36"
   d="m 59.43,108.23 v -3.6 h 2.38 v 4.35 c 0.09,-1.22 2.35,-4.35 5.86,-4.35 0,0 1.45,-0.06 2.38,0.12 l -1.1,1.45 c -0.29,0.35 -2.03,0.38 -2.03,0.38 -4.35,0.17 -5.05,2.17 -5.11,3.02 v 7.8 l 0.09,1.74 h -2.58 l 0.09,-1.74 z"
   id="path9" />&#10;		</g>&#10;		<g
   id="g10">&#10;			<path
   fill="#047f36"
   d="m 84.26,112.06 c -0.06,4.18 -3.97,7.51 -8.09,7.51 -4.06,0 -7.89,-3.34 -7.8,-7.51 0.03,-4.12 4,-7.72 8.09,-7.72 4.08,0 7.86,3.6 7.8,7.72 z m -2.67,0 c -0.12,-5.08 -2.99,-7.25 -5.8,-7.25 -2.84,0 -5.22,2.52 -4.84,7.25 0.32,4.44 2.99,6.93 5.8,6.93 2.87,0 4.87,-2.21 4.84,-6.93 z"
   id="path10" />&#10;		</g>&#10;		<g
   id="g11">&#10;			<path
   fill="#047f36"
   d="m 101.25,119.13 h -0.61 l -4.41,-8.27 -4.18,8.27 H 91.3 l -7.63,-14.5 h 2.87 l 6.24,12.12 3.19,-6.38 -3.07,-5.74 h 2.84 l 6.24,12.12 6.09,-12.12 h 0.52 z"
   id="path11" />&#10;		</g>&#10;		<g
   id="g12">&#10;			<path
   fill="#047f36"
   d="m 115.69,109.01 v -0.55 l 3.51,-0.03 c 2.64,0 5.05,-0.49 5.05,-4.21 0,-3.63 -2.55,-4.76 -5.08,-4.76 l -6.21,0.03 v 19.64 h -2.64 v -20.1 h 9.49 c 4,0 7.34,2.2 7.34,5.1 0,2.52 -3.71,4.87 -6.82,4.9 h -4.41 c 0,2.93 3.1,4.18 7.37,5.05 3.31,0.84 4.67,2.75 4.87,5.05 h -1.8 c -1.5,-3.16 -10.67,-2.49 -10.67,-10.12 z"
   id="path12" />&#10;		</g>&#10;	</g><g
   id="g50">&#10;		<g
   id="g14">&#10;			<path
   fill="#047f36"
   d="M 89.44,95.79 C 88.05,86.66 87.09,77.18 88.83,68.03 89.98,62.57 92.09,57.3 94.9,52.49 c -0.8,1.67 -1.54,3.37 -2.2,5.1 -5.21,12.08 -4.3,25.4 -3.26,38.2 z"
   id="path13" />&#10;		</g>&#10;		<g
   id="g15">&#10;			<path
   fill="#047f36"
   d="m 88.62,87.74 c -1.71,-9.13 1.87,-18.41 9.39,-23.9 -2.65,3.48 -5.22,7.07 -6.84,11.11 -1.56,4.06 -2.11,8.44 -2.55,12.79 z"
   id="path14" />&#10;		</g>&#10;		<g
   id="g16">&#10;			<path
   fill="#047f36"
   d="m 97.46,93.05 c -1.23,-3.86 -0.65,-8.24 1.5,-11.72 2.14,-4.48 2.97,-9.57 2.04,-14.51 2.03,4.79 1.46,10.47 -0.71,15.13 0,0 -0.77,1.55 -0.77,1.55 -1.56,2.92 -1.85,6.21 -2.06,9.55 z"
   id="path15" />&#10;		</g>&#10;		<g
   id="g17">&#10;			<path
   fill="#047f36"
   d="M 98.01,96.01 C 94.95,82.26 89.26,73.35 77.58,65.4 c -1.47,-1.06 -3,-2.03 -4.56,-2.98 14.53,6.91 23.11,17.41 24.99,33.59 z"
   id="path16" />&#10;		</g>&#10;		<g
   id="g18">&#10;			<path
   fill="#047f36"
   d="M 73.29,96.01 C 75.12,86.92 76.13,77.2 72.55,68.42 71.68,66.23 70.42,64.26 69.42,62.13 66.39,55.74 64.8,48.44 65.71,41.4 c -0.12,2.35 0.06,4.7 0.4,7.01 0.68,4.62 2.11,9.12 4.15,13.31 1.03,2.11 2.36,4.11 3.18,6.33 3.61,8.98 2.42,18.9 -0.15,27.96 z"
   id="path17" />&#10;		</g>&#10;		<g
   id="g19">&#10;			<path
   fill="#047f36"
   d="m 65.93,59.61 c 9.53,9.58 10.56,23.98 7.44,36.51 0.18,-1.6 0.35,-3.2 0.45,-4.81 1.12,-11.07 -0.79,-22.82 -7.89,-31.7 z"
   id="path18" />&#10;		</g>&#10;		<g
   id="g20">&#10;			<path
   fill="#047f36"
   d="m 85.95,52.74 c -5.98,10.23 -8.19,22.54 -10.72,34 0.9,-11.83 2.98,-24.58 10.72,-34 z"
   id="path19" />&#10;		</g>&#10;		<g
   id="g21">&#10;			<path
   fill="#047f36"
   d="m 66.33,40.69 c 0.02,-0.67 -0.21,-1.26 -0.59,-1.67 -0.39,0.39 -0.66,0.97 -0.68,1.64 -0.02,0.67 0.21,1.26 0.59,1.67 0.4,-0.4 0.66,-0.98 0.68,-1.64 z"
   id="path20" />&#10;		</g>&#10;		<g
   id="g22">&#10;			<path
   fill="#047f36"
   d="m 65.74,39.02 c -0.2,-0.34 0.21,-0.84 0.59,-0.69 -0.31,0.18 -0.46,0.35 -0.59,0.69 z"
   id="path21" />&#10;		</g>&#10;		<g
   id="g23">&#10;			<path
   fill="#047f36"
   d="m 65.05,38.43 c 0.34,-0.2 0.84,0.21 0.69,0.59 -0.18,-0.32 -0.35,-0.46 -0.69,-0.59 z"
   id="path22" />&#10;		</g>&#10;		<g
   id="g24">&#10;			<path
   fill="#047f36"
   d="m 67.26,43.26 c 0.51,-0.43 0.8,-1 0.86,-1.55 -0.55,-0.04 -1.16,0.15 -1.67,0.58 -0.51,0.43 -0.8,1 -0.86,1.55 0.55,0.04 1.16,-0.15 1.67,-0.58 z"
   id="path23" />&#10;		</g>&#10;		<g
   id="g25">&#10;			<path
   fill="#047f36"
   d="m 68.12,41.71 c 0.12,-0.38 0.77,-0.4 0.91,-0.02 -0.35,-0.11 -0.57,-0.11 -0.91,0.02 z"
   id="path24" />&#10;		</g>&#10;		<g
   id="g26">&#10;			<path
   fill="#047f36"
   d="m 68.1,40.8 c 0.38,0.12 0.4,0.77 0.02,0.91 0.11,-0.35 0.11,-0.57 -0.02,-0.91 z"
   id="path25" />&#10;		</g>&#10;		<g
   id="g27">&#10;			<path
   fill="#047f36"
   d="m 65.03,42.14 c -0.41,-0.52 -0.97,-0.83 -1.52,-0.91 -0.05,0.55 0.11,1.17 0.53,1.69 0.41,0.52 0.97,0.83 1.52,0.91 0.05,-0.55 -0.12,-1.17 -0.53,-1.69 z"
   id="path26" />&#10;		</g>&#10;		<g
   id="g28">&#10;			<path
   fill="#047f36"
   d="m 63.51,41.23 c -0.37,-0.14 -0.37,-0.78 0.01,-0.91 -0.12,0.34 -0.13,0.56 -0.01,0.91 z"
   id="path27" />&#10;		</g>&#10;		<g
   id="g29">&#10;			<path
   fill="#047f36"
   d="m 62.6,41.22 c 0.14,-0.37 0.78,-0.37 0.91,0.01 C 63.17,41.1 62.94,41.1 62.6,41.22 Z"
   id="path28" />&#10;		</g>&#10;		<g
   id="g30">&#10;			<path
   fill="#047f36"
   d="m 65.07,44.6 c -0.41,-0.52 -0.97,-0.83 -1.52,-0.91 -0.05,0.55 0.11,1.17 0.53,1.69 0.41,0.52 0.97,0.83 1.52,0.91 0.05,-0.55 -0.12,-1.17 -0.53,-1.69 z"
   id="path29" />&#10;		</g>&#10;		<g
   id="g31">&#10;			<path
   fill="#047f36"
   d="m 63.55,43.69 c -0.37,-0.14 -0.37,-0.78 0.01,-0.91 -0.12,0.34 -0.13,0.56 -0.01,0.91 z"
   id="path30" />&#10;		</g>&#10;		<g
   id="g32">&#10;			<path
   fill="#047f36"
   d="m 62.64,43.68 c 0.14,-0.37 0.78,-0.37 0.91,0.01 -0.34,-0.13 -0.57,-0.13 -0.91,-0.01 z"
   id="path31" />&#10;		</g>&#10;		<g
   id="g33">&#10;			<path
   fill="#047f36"
   d="m 64.77,46.81 c -0.51,-0.42 -1.13,-0.6 -1.68,-0.56 0.07,0.55 0.36,1.12 0.88,1.54 0.51,0.42 1.13,0.6 1.68,0.56 -0.07,-0.55 -0.37,-1.12 -0.88,-1.54 z"
   id="path32" />&#10;		</g>&#10;		<g
   id="g34">&#10;			<path
   fill="#047f36"
   d="m 63.09,46.25 c -0.4,-0.05 -0.53,-0.68 -0.19,-0.89 -0.05,0.36 0,0.58 0.19,0.89 z"
   id="path33" />&#10;		</g>&#10;		<g
   id="g35">&#10;			<path
   fill="#047f36"
   d="m 62.2,46.43 c 0.05,-0.4 0.68,-0.53 0.89,-0.19 -0.36,-0.04 -0.58,0.01 -0.89,0.19 z"
   id="path34" />&#10;		</g>&#10;		<g
   id="g36">&#10;			<path
   fill="#047f36"
   d="m 67.32,45.69 c 0.51,-0.43 0.8,-1 0.86,-1.55 -0.55,-0.04 -1.16,0.15 -1.67,0.58 -0.51,0.43 -0.8,1 -0.86,1.55 0.55,0.04 1.16,-0.15 1.67,-0.58 z"
   id="path35" />&#10;		</g>&#10;		<g
   id="g37">&#10;			<path
   fill="#047f36"
   d="m 68.18,44.14 c 0.12,-0.38 0.77,-0.4 0.91,-0.02 -0.34,-0.11 -0.57,-0.1 -0.91,0.02 z"
   id="path36" />&#10;		</g>&#10;		<g
   id="g38">&#10;			<path
   fill="#047f36"
   d="m 68.16,43.24 c 0.38,0.12 0.4,0.77 0.02,0.91 0.11,-0.35 0.11,-0.58 -0.02,-0.91 z"
   id="path37" />&#10;		</g>&#10;		<g
   id="g39">&#10;			<path
   fill="#047f36"
   d="m 67.49,47.72 c 0.51,-0.43 0.8,-1 0.86,-1.55 -0.55,-0.04 -1.16,0.15 -1.67,0.58 -0.51,0.43 -0.8,1 -0.86,1.55 0.55,0.04 1.17,-0.15 1.67,-0.58 z"
   id="path38" />&#10;		</g>&#10;		<g
   id="g40">&#10;			<path
   fill="#047f36"
   d="m 68.35,46.18 c 0.12,-0.38 0.77,-0.4 0.91,-0.02 -0.34,-0.12 -0.57,-0.11 -0.91,0.02 z"
   id="path39" />&#10;		</g>&#10;		<g
   id="g41">&#10;			<path
   fill="#047f36"
   d="m 68.33,45.27 c 0.38,0.12 0.4,0.77 0.02,0.91 0.11,-0.35 0.11,-0.57 -0.02,-0.91 z"
   id="path40" />&#10;		</g>&#10;		<g
   id="g42">&#10;			<path
   fill="#047f36"
   d="m 96.43,52.81 c 0.7,-0.96 0.95,-2.07 0.82,-3.04 -0.97,0.17 -1.94,0.76 -2.64,1.72 -0.7,0.96 -0.95,2.07 -0.82,3.04 0.97,-0.17 1.95,-0.76 2.64,-1.72 z"
   id="path41" />&#10;		</g>&#10;		<g
   id="g43">&#10;			<path
   fill="#047f36"
   d="m 93.03,54.94 c -0.05,-1.18 -0.54,-2.21 -1.25,-2.89 -0.65,0.74 -1.05,1.81 -0.99,2.99 0.05,1.18 0.54,2.21 1.25,2.89 0.64,-0.74 1.04,-1.81 0.99,-2.99 z"
   id="path42" />&#10;		</g>&#10;		<g
   id="g44">&#10;			<path
   fill="#047f36"
   d="m 95.73,56.54 c 1,-0.63 1.65,-1.56 1.89,-2.52 -0.96,-0.2 -2.09,-0.02 -3.09,0.61 -1,0.63 -1.65,1.56 -1.89,2.52 0.96,0.21 2.08,0.02 3.09,-0.61 z"
   id="path43" />&#10;		</g>&#10;		<g
   id="g45">&#10;			<path
   fill="#047f36"
   d="m 79.49,95.29 c -3.59,-4.67 -0.44,-12.21 5.25,-13.3 -1.1,0.79 -2.01,1.7 -2.81,2.68 -2.58,2.96 -3.26,6.8 -2.44,10.62 z"
   id="path44" />&#10;		</g>&#10;		<g
   id="g46">&#10;			<path
   fill="#047f36"
   d="m 89.56,95.29 c -2.71,-1.55 -4.05,-5.07 -3.16,-8.09 0.4,-2.75 -0.76,-5.51 -2.06,-7.97 2.27,2 3.9,5.02 3.51,8.17 -0.7,2.8 0.11,5.47 1.71,7.89 z"
   id="path45" />&#10;		</g>&#10;		<g
   id="g47">&#10;			<path
   fill="#047f36"
   d="m 97.93,95.04 c -2,-5.53 3.28,-11.77 9.03,-11.08 -1.29,0.42 -2.43,1.01 -3.49,1.7 -3.36,2.04 -5.16,5.49 -5.54,9.38 z"
   id="path46" />&#10;		</g>&#10;		<g
   id="g48">&#10;			<path
   fill="#047f36"
   d="m 79.07,94.57 c -3.8,-6.42 -1.01,-16.24 6.25,-18.78 -1.46,1.08 -2.63,2.4 -3.6,3.83 -3.12,4.34 -3.68,9.77 -2.65,14.95 z"
   id="path47" />&#10;		</g>&#10;		<g
   id="g49">&#10;			<path
   fill="#047f36"
   d="M 61.9,79.21 C 69.22,80.4 75.05,88.56 72.66,95.82 73.02,88.58 68.31,82.21 61.9,79.21 Z"
   id="path48" />&#10;		</g>&#10;	</g><g
   id="g51"
   style="fill:#99d97f;fill-opacity:1">&#10;		<rect
   x="67.480003"
   y="94.730003"
   fill="#7dff00"
   width="33.889999"
   height="4.3099999"
   id="rect50"
   style="fill:#99d97f;fill-opacity:1" />&#10;	</g><g
   id="g52">&#10;		<rect
   x="38.75"
   y="94.580002"
   fill="#047f36"
   width="91.349998"
   height="0.30000001"
   id="rect51" />&#10;	</g>&#10;<g
   id="Ebene_2">&#10;</g>&#10;<g
   id="Ebene_3">&#10;</g>&#10;</svg>
